<?xml version="1.0" encoding="UTF-8"?>
<svg width="1200pt" height="1200pt" version="1.1" viewBox="0 0 1200 1200" xmlns="http://www.w3.org/2000/svg">
 <g>
  <path d="m5.25 189.53v796.88h1201.1v-58.875h-1142.2v-738z"/>
  <path d="m1118.6 203.03c-102.72-1.3711-211.38-8.8789-317.62 37.5l-3 1.125-2.625 1.875c-103.63 69.258-140.04 182.85-190.5 263.25l-0.375 1.125-0.375 0.75c-54.238 97.773-90.957 197.98-174.38 256.12-79.027 42.77-186.29 37.344-289.12 38.25l0.75 72c99.074-0.86328 220.46 9.8555 324.75-47.625l1.5-1.1289 1.5-0.75781c107.75-73.906 147.63-191.2 198-282 56.051-89.828 89.555-185.55 166.12-238.12 85.801-36.172 180.74-31.758 284.25-30.375l1.125-72z"/>
 </g>
</svg>
